<svg width="167" height="166" viewBox="0 0 167 166" fill="none" xmlns="http://www.w3.org/2000/svg">
<path d="M65.2597 143.739C72.4987 141.414 78.8208 137.274 84.2259 131.318L81.6 110.985C73.9508 120.828 64.7649 124.976 54.0424 123.43C47.9389 122.551 43.5696 120.153 40.9347 116.237C38.2998 112.321 37.4341 107.228 38.3378 100.96C40.5255 85.7834 51.8469 79.6694 72.3022 82.6181L85.4166 84.5085L88.0918 65.9503L71.7606 63.5962C52.625 60.8378 37.314 62.5037 25.8276 68.5938C14.5299 74.5428 7.85858 84.6106 5.81356 98.7973C4.07768 110.839 6.46882 121.119 12.987 129.636C19.5052 138.153 29.2802 143.351 42.3122 145.23C50.5603 146.419 58.2094 145.922 65.2597 143.739Z" fill="#FCFFFA"/>
<path d="M125.367 137.693C124.689 134.857 125.128 130.976 126.684 126.049L143.398 73.1257C152.532 44.2004 140.968 24.6435 108.705 14.4548C93.9249 9.78713 77.714 7.98852 60.0727 9.059L60.6747 32.0579C75.1123 31.7235 86.9401 33.0118 96.158 35.9228C104.422 38.5327 109.855 42.0837 112.457 46.5756C115.267 50.9587 115.393 57.203 112.833 65.3084L110.574 72.4603L104.928 90.3399L96.8723 115.848C94.5234 123.286 94.854 133.3 95.1531 137.065C95.68 143.699 98.7331 148.421 102.28 152.687C105.985 157.003 111.314 160.608 118.265 163.502L131.101 145.272C128.165 142.946 126.253 140.42 125.367 137.693Z" fill="#FCFFFA"/>
</svg>
