<svg width="133" height="836" viewBox="0 0 133 836" fill="none" xmlns="http://www.w3.org/2000/svg">
<path fill-rule="evenodd" clip-rule="evenodd" d="M27.0003 55.4513L44.8803 51.1313V33.2092L27.0003 29.0092V0.0556641L118.16 27.5484V57.3716L49.3223 78.1322L76.4403 99.917L76.4403 77.8612H98.7203L98.7203 134.101H89.5379L91.738 136.884C97.7902 144.538 100.76 153.675 100.76 164.085C100.76 175.124 97.4536 184.053 90.215 190.066C83.2845 195.969 74.0243 198.685 62.9203 198.685C55.9432 198.685 49.5248 197.391 43.7377 194.723C37.9516 192.099 33.3139 188.163 29.9252 182.943L29.9204 182.935L29.9156 182.928C26.5487 177.69 24.9603 171.506 24.9603 164.565C24.9603 158.053 26.3738 152.149 29.3273 146.98L29.3484 146.943L29.3703 146.907C32.4233 141.818 36.7646 137.876 42.2681 135.079L42.2915 135.067L42.315 135.055C42.702 134.865 43.0934 134.682 43.4893 134.505L27.0003 132.582L27.0003 55.4513ZM31.0003 129.021L45.4003 130.701V101.301L81.4003 130.101H94.7203L94.7203 81.8612H80.4403L80.4403 108.261L44.4403 79.3412H31.4604L114.16 54.4V30.52L31.0003 5.43996V25.84L48.8803 30.04V54.28L31.0003 58.6L31.0003 129.021ZM49.4003 109.624V132.467C53.163 131.507 57.2394 131.045 61.6003 131.045C64.2792 131.045 66.7232 131.17 68.9169 131.433L72.4403 131.856L72.4403 171.748C74.6455 171.235 76.1123 170.47 77.0444 169.631C78.4066 168.406 79.3203 166.523 79.3203 163.365C79.3203 160.775 78.9718 158.427 78.3079 156.295C77.6599 154.294 76.5156 152.061 74.7724 149.591L72.5313 146.416L88.9516 134.101H79.9972L49.4003 109.624ZM82.1203 155.085C82.9203 157.645 83.3203 160.405 83.3203 163.365C83.3203 167.365 82.1203 170.445 79.7203 172.605C77.9958 174.157 75.5691 175.234 72.4403 175.836C71.2147 176.072 69.8814 176.235 68.4403 176.325L68.4403 135.405C66.4403 135.165 64.1603 135.045 61.6003 135.045C54.8003 135.045 48.9603 136.245 44.0803 138.645C39.2003 141.125 35.4403 144.565 32.8003 148.965C30.2403 153.445 28.9603 158.645 28.9603 164.565C28.9603 170.885 30.4003 176.285 33.2803 180.765C36.2403 185.325 40.2803 188.765 45.4003 191.085C50.6003 193.485 56.4403 194.685 62.9203 194.685C73.4003 194.685 81.6403 192.125 87.6403 187.005C93.7203 181.965 96.7603 174.325 96.7603 164.085C96.7603 155.959 94.8114 148.807 90.9136 142.63C90.5513 142.056 90.1723 141.49 89.7764 140.933C89.3996 140.402 89.0076 139.88 88.6003 139.365L78.0403 147.285C79.9603 150.005 81.3203 152.605 82.1203 155.085ZM63.1603 50.92L99.8803 42.16L63.1603 33.4V50.92ZM67.1603 38.4665V45.8535L82.6427 42.16L67.1603 38.4665ZM48.3635 169.808L48.3721 169.815C49.2538 170.575 50.7315 171.299 53.0403 171.789V157.233C51.0596 157.606 49.6035 158.285 48.5367 159.138C47.2287 160.239 46.4003 161.854 46.4003 164.565C46.4003 167.278 47.2031 168.813 48.3635 169.808ZM53.0403 153.178C50.1871 153.605 47.8405 154.561 46.0003 156.045C43.6003 158.045 42.4003 160.885 42.4003 164.565C42.4003 168.165 43.5203 170.925 45.7603 172.845C47.4359 174.289 49.8625 175.295 53.0403 175.864C54.2625 176.082 55.5959 176.236 57.0403 176.325V152.925H56.2003C55.0857 152.945 54.0324 153.03 53.0403 153.178ZM98.9008 250.088L99.5203 247.964C100.202 245.628 100.52 243.124 100.52 240.484C100.52 235.781 98.8521 231.547 95.7086 227.911C95.3028 227.44 94.8781 226.987 94.4351 226.552L98.7203 226.011V201.924H27.0003V228.884H62.1273C66.8512 229.938 69.9532 231.262 71.7917 232.638C73.2848 233.772 74.1603 235.387 74.1603 238.084C74.1603 239.078 73.9571 240.655 73.4249 242.935L72.4527 247.102L90.7293 250.088H27.0003V274.31L29.0887 274.637C28.5326 275.463 28.0238 276.323 27.5632 277.219L27.5528 277.239L27.5426 277.26C25.8061 280.733 24.9603 284.511 24.9603 288.528C24.9603 294.51 26.6333 299.861 30.0931 304.385C33.4762 308.889 38.1088 312.217 43.8018 314.445C45.5087 315.137 47.2776 315.721 49.1065 316.199C49.0313 316.198 48.9558 316.198 48.8803 316.198C42.0321 316.198 36.1514 318.412 31.6216 323.04C27.0667 327.694 24.9603 333.817 24.9603 340.958C24.9603 348.553 27.2017 354.931 31.8069 359.746C30.4535 360.94 29.3015 362.324 28.3811 363.91L28.3566 363.952L28.3331 363.995C26.6189 367.121 25.6826 370.917 25.3336 375.193L25.0751 378.358L44.109 384.457L45.4337 380.861C45.7183 380.088 46.0305 379.733 46.2657 379.552C46.5719 379.419 47.4957 379.158 49.4803 379.158H74.2003C82.4698 379.158 89.3664 376.805 94.1131 371.452C98.8172 366.147 100.76 358.294 100.76 348.758C100.76 344.866 100.328 340.695 99.491 336.256L99.4883 336.243C98.6443 331.854 97.4207 327.551 95.8194 323.337L94.4404 319.708L74.5551 326.592L75.8056 330.343C76.7938 333.308 77.5463 336.173 78.07 338.942L78.0797 338.993L78.0907 339.043C78.6952 341.839 78.9603 344.059 78.9603 345.758C78.9603 349.522 78.2341 351.03 77.8271 351.482L77.7892 351.524L77.7525 351.568C77.6002 351.747 76.8263 352.362 74.3603 352.521L74.3603 350.078C74.3603 339.981 72.4558 331.62 68.0884 325.544C65.3577 321.744 61.8671 319.124 57.746 317.645C59.3926 317.781 61.0777 317.848 62.8003 317.848C73.9504 317.848 83.1805 315.739 90.021 311.028C97.1691 306.163 100.76 299.053 100.76 290.208C100.76 286.09 99.8658 282.195 98.058 278.58L98.0484 278.56L98.0386 278.541C97.7767 278.031 97.5003 277.534 97.2094 277.048H126.534L123.633 250.088H98.9008ZM92.3739 277.048C91.1961 275.529 89.8182 274.196 88.2403 273.048H122.08L120.04 254.088H31.0003V270.888L37.1203 271.848C35.7737 272.9 34.5821 274.063 33.5453 275.337C32.6112 276.484 31.8028 277.721 31.1203 279.048C29.6803 281.928 28.9603 285.088 28.9603 288.528C28.9603 293.728 30.4003 298.208 33.2803 301.968C36.1603 305.808 40.1603 308.728 45.2803 310.728C50.4003 312.808 56.2403 313.848 62.8003 313.848C73.5203 313.848 81.8403 311.808 87.7603 307.728C93.7603 303.648 96.7603 297.808 96.7603 290.208C96.7603 286.688 96.0003 283.408 94.4803 280.368C93.8688 279.178 93.1667 278.071 92.3739 277.048ZM74.3603 356.527C73.9626 356.548 73.5493 356.558 73.1203 356.558H70.3603L70.3603 350.078C70.3603 340.398 68.5203 332.998 64.8403 327.878C61.1603 322.758 55.8403 320.198 48.8803 320.198C42.9603 320.198 38.1603 322.078 34.4803 325.838C30.8003 329.598 28.9603 334.638 28.9603 340.958C28.9603 347.881 31.0145 353.365 35.1228 357.412C36.1422 358.416 37.288 359.331 38.5603 360.158C37.1426 360.792 35.8989 361.548 34.8292 362.426C33.6051 363.431 32.6088 364.595 31.8403 365.918C30.4803 368.398 29.6403 371.598 29.3203 375.518L41.68 379.478C42.24 377.958 43.0803 376.838 44.2003 376.118C45.3203 375.478 47.0803 375.158 49.4803 375.158H74.2003C81.7203 375.158 87.3603 373.038 91.1203 368.798C94.8803 364.558 96.7603 357.878 96.7603 348.758C96.7603 345.158 96.3603 341.238 95.5603 336.998C94.7603 332.838 93.6003 328.758 92.0803 324.758L79.6003 329.078C80.6403 332.198 81.4403 335.238 82.0003 338.198C82.6403 341.158 82.9603 343.678 82.9603 345.758C82.9603 349.758 82.2403 352.558 80.8003 354.158C79.5955 355.576 77.4488 356.365 74.3603 356.527ZM62.5603 224.884C67.7603 226.004 71.6403 227.524 74.2003 229.444C76.8403 231.444 78.1603 234.324 78.1603 238.084C78.1603 238.625 78.1208 239.233 78.0419 239.909C77.9106 241.034 77.6701 242.345 77.3203 243.844L95.6803 246.844C96.2403 244.924 96.5203 242.804 96.5203 240.484C96.5203 236.804 95.2403 233.484 92.6803 230.524C91.625 229.299 90.3959 228.204 88.993 227.239C87.0989 225.936 84.888 224.872 82.3603 224.044L94.7203 222.484V205.924H31.0003V224.884H62.5603ZM49.7164 287.884C52.1682 289.249 56.3605 290.168 62.8003 290.168C66.4643 290.168 69.4378 289.955 71.7678 289.564C74.1405 289.165 75.6082 288.62 76.4345 288.115C78.1321 287.078 78.8403 285.807 78.8403 283.848C78.8403 281.682 77.7718 279.386 74.2495 277.048H50.1072C49.0942 277.801 48.309 278.621 47.7097 279.497C47.0628 280.625 46.7603 281.775 46.7603 283.008C46.7603 284.251 47.0325 285.148 47.4449 285.837C47.8607 286.531 48.551 287.235 49.7164 287.884ZM44.3203 277.368C45.4403 275.688 46.9603 274.248 48.8803 273.048H75.4003C80.3603 276.008 82.8403 279.608 82.8403 283.848C82.8403 287.208 81.4003 289.768 78.5203 291.528C75.6403 293.288 70.4003 294.168 62.8003 294.168C49.4403 294.168 42.7603 290.448 42.7603 283.008C42.7603 281.008 43.2803 279.128 44.3203 277.368ZM48.6403 356.558H59.9203V351.878C59.9203 347.558 59.1603 344.318 57.6403 342.158C56.1203 340.078 53.7603 339.038 50.5603 339.038C48.0003 339.038 46.0003 339.678 44.5603 340.958C43.2003 342.318 42.5203 344.158 42.5203 346.478C42.5203 350.798 44.5603 354.158 48.6403 356.558ZM54.3898 344.49C53.8029 343.703 52.8021 343.038 50.5603 343.038C48.7608 343.038 47.8228 343.456 47.3064 343.873C46.8817 344.338 46.5203 345.075 46.5203 346.478C46.5203 348.943 47.446 350.906 49.8063 352.558H55.9203V351.878C55.9203 347.938 55.2112 345.678 54.3898 344.49ZM30.8803 423.662C22.6403 421.102 16.3203 416.902 11.9203 411.062C7.44031 405.302 4.9203 397.542 4.36031 387.782L17.6803 385.742C17.8107 386.733 17.9559 387.681 18.116 388.587C18.9384 393.24 20.1531 396.772 21.7603 399.182C23.0131 401.114 24.7598 402.79 27.0003 404.21C28.1936 404.967 29.5269 405.651 31.0003 406.262V399.782L94.7203 380.342V400.502L43.1203 411.902L94.7203 424.382V443.942L30.8803 423.662ZM60.8644 412.079L98.7203 403.715V374.94L27.0003 396.821V399.208C26.2319 398.505 25.6103 397.767 25.1161 397.006L25.1025 396.985L25.0885 396.964C23.6771 394.847 22.4188 391.093 21.6461 385.221L21.1132 381.17L0.158463 384.379L0.366867 388.012C0.957123 398.299 3.63477 406.912 8.74434 413.494C13.7318 420.102 20.8058 424.719 29.6815 427.479C29.6855 427.48 29.6895 427.481 29.6935 427.482L98.7203 449.41V421.235L60.8644 412.079ZM87.9882 503.348L72.0175 491.795L74.4957 488.534C77.1317 485.065 78.2403 481.854 78.2403 478.834C78.2403 475.727 77.1846 473.839 75.2835 472.523C73.1912 471.075 69.1733 469.994 62.4403 469.994C55.9197 469.994 52.3067 471.088 50.6035 472.401C48.9444 473.681 47.9603 475.538 47.9603 478.594C47.9603 480.325 48.2114 481.791 48.6536 483.035C49.2641 484.51 50.2557 486.403 51.6907 488.744L53.6521 491.944L45.3115 497.817C46.4689 497.675 47.6592 497.604 48.8803 497.604C56.9726 497.604 63.5705 500.664 68.0884 506.95C72.4558 513.026 74.3603 521.387 74.3603 531.484V533.927C76.8263 533.768 77.6002 533.153 77.7525 532.974L77.7892 532.931L77.8271 532.888C78.2341 532.436 78.9603 530.928 78.9603 527.164C78.9603 525.465 78.6952 523.246 78.0907 520.45L78.0797 520.399L78.07 520.348C77.5463 517.58 76.7938 514.714 75.8056 511.749L74.5551 507.998L87.9882 503.348ZM91.7071 502.061L94.4404 501.115L95.8194 504.743C97.4207 508.957 98.6443 513.26 99.4883 517.649L99.491 517.663C100.328 522.101 100.76 526.272 100.76 530.164C100.76 539.7 98.8172 547.554 94.1131 552.858C89.3664 558.211 82.4698 560.564 74.2003 560.564H49.4803C47.4956 560.564 46.5718 560.826 46.2657 560.958C46.0304 561.139 45.7183 561.495 45.4337 562.267L44.109 565.863L25.0751 559.765L25.3336 556.599C25.6826 552.323 26.6189 548.527 28.3331 545.401L28.3566 545.358L28.3811 545.316C29.3015 543.731 30.4535 542.346 31.8069 541.153C27.2017 536.337 24.9603 529.959 24.9603 522.364C24.9603 515.223 27.0667 509.1 31.6216 504.447C32.3716 503.68 33.1585 502.98 33.9808 502.345L33.393 501.608C27.7944 494.588 24.9603 486.551 24.9603 477.634C24.9603 470.587 26.4435 464.271 29.5746 458.837L29.5872 458.815L29.6001 458.794C32.7896 453.417 37.2312 449.258 42.8457 446.36L42.8573 446.354L42.8688 446.348C48.5667 443.454 55.0889 442.074 62.3203 442.074C69.5554 442.074 76.1361 443.455 81.967 446.326C87.8062 449.2 92.4284 453.341 95.7225 458.731C99.1195 464.157 100.76 470.384 100.76 477.274C100.76 482.061 100.064 486.494 98.5995 490.521C97.1439 494.524 94.9312 498.25 92.0139 501.698L91.7071 502.061ZM92.3203 460.834C89.4403 456.114 85.4003 452.474 80.2003 449.914C75.0003 447.354 69.0403 446.074 62.3203 446.074C55.6003 446.074 49.7203 447.354 44.6803 449.914C39.7203 452.474 35.8403 456.114 33.0403 460.834C30.3203 465.554 28.9603 471.154 28.9603 477.634C28.9603 485.634 31.4803 492.794 36.5203 499.114L48.2803 490.834C46.7603 488.354 45.6403 486.234 44.9203 484.474C44.2803 482.714 43.9603 480.754 43.9603 478.594C43.9603 474.514 45.3603 471.394 48.1603 469.234C50.9603 467.074 55.7203 465.994 62.4403 465.994C69.4003 465.994 74.4403 467.074 77.5603 469.234C80.6803 471.394 82.2403 474.594 82.2403 478.834C82.2403 482.529 80.994 486.19 78.5014 489.819C78.2413 490.198 77.9676 490.576 77.6803 490.954L88.9603 499.114C91.6003 495.994 93.5603 492.674 94.8403 489.154C96.1203 485.634 96.7603 481.674 96.7603 477.274C96.7603 471.034 95.2803 465.554 92.3203 460.834ZM35.1228 538.818C36.1422 539.822 37.288 540.737 38.5603 541.564C37.1426 542.199 35.8989 542.955 34.8292 543.832C33.6051 544.837 32.6088 546.001 31.8403 547.324C30.4803 549.804 29.6403 553.004 29.3203 556.924L41.6803 560.884C42.2403 559.364 43.0803 558.244 44.2003 557.524C45.3203 556.884 47.0803 556.564 49.4803 556.564H74.2003C81.7203 556.564 87.3603 554.444 91.1203 550.204C94.8803 545.964 96.7603 539.284 96.7603 530.164C96.7603 526.564 96.3603 522.644 95.5603 518.404C94.7603 514.244 93.6003 510.164 92.0803 506.164L79.6003 510.484C80.6403 513.604 81.4403 516.644 82.0003 519.604C82.6403 522.564 82.9603 525.084 82.9603 527.164C82.9603 531.164 82.2403 533.964 80.8003 535.564C79.5955 536.982 77.4488 537.771 74.3603 537.933C73.9626 537.954 73.5493 537.964 73.1203 537.964H70.3603V531.484C70.3603 521.804 68.5203 514.404 64.8403 509.284C61.1603 504.164 55.8403 501.604 48.8803 501.604C42.9603 501.604 38.1603 503.484 34.4803 507.244C30.8003 511.004 28.9603 516.044 28.9603 522.364C28.9603 529.287 31.0145 534.771 35.1228 538.818ZM48.6403 537.964H59.9203V533.284C59.9203 528.964 59.1603 525.724 57.6403 523.564C56.1203 521.484 53.7603 520.444 50.5603 520.444C48.0003 520.444 46.0003 521.084 44.5603 522.364C43.2003 523.724 42.5203 525.564 42.5203 527.884C42.5203 532.204 44.5603 535.564 48.6403 537.964ZM54.3901 525.896C53.8032 525.109 52.8024 524.444 50.5603 524.444C48.7608 524.444 47.8228 524.862 47.3064 525.279C46.8817 525.744 46.5203 526.481 46.5203 527.884C46.5203 530.35 47.446 532.312 49.8062 533.964H55.9203V533.284C55.9203 529.345 55.2114 527.084 54.3901 525.896ZM27.0003 630.627V603.667H74.3203C75.7274 603.667 76.7475 603.55 77.4502 603.384C78.0962 603.231 78.3079 603.076 78.3085 603.077L78.4073 602.991L78.5203 602.906C78.5989 602.848 78.6429 602.795 78.6889 602.689C78.7467 602.555 78.8403 602.248 78.8403 601.667C78.8403 600.052 77.7514 597.641 73.3587 594.627H27.0003L27.0003 567.667H98.7203V591.589L95.2128 592.201C96.2538 593.572 97.1588 594.998 97.9196 596.481L97.9289 596.499L97.938 596.518C99.8415 600.325 100.76 604.506 100.76 608.987C100.76 615.373 98.7811 620.849 94.4421 624.878C90.1277 628.884 84.313 630.627 77.5603 630.627H27.0003ZM90.6908 592.991C89.6482 591.809 88.4714 590.661 87.1603 589.547L94.7203 588.227V571.667H31.0003L31.0003 590.627H74.5603C80.0803 594.146 82.8403 597.826 82.8403 601.667C82.8403 603.667 82.2003 605.146 80.9203 606.107C79.7203 607.146 77.5203 607.667 74.3203 607.667H31.0003V626.627H77.5603C83.6403 626.627 88.3603 625.067 91.7203 621.947C95.0803 618.826 96.7603 614.507 96.7603 608.987C96.7603 605.067 95.9603 601.507 94.3603 598.307C93.4159 596.465 92.1927 594.693 90.6908 592.991ZM123.633 730.521H27.0003V706.204L29.7413 705.85C26.5791 701.559 24.9603 696.457 24.9603 690.641C24.9603 681.518 28.5586 674.189 35.8216 669.22L35.8365 669.209L35.8514 669.199C42.8223 664.522 52.0211 662.401 63.0403 662.401C69.9667 662.401 76.3083 663.556 81.9951 665.955C87.6835 668.355 92.2986 671.812 95.6638 676.393L95.6752 676.408L95.6864 676.424C99.0765 681.132 100.76 686.517 100.76 692.441C100.76 696.485 99.9839 700.211 98.4147 703.561H126.534L123.633 730.521ZM90.7603 707.561C91.9946 706.327 93.0385 704.993 93.8919 703.561C95.8042 700.351 96.7603 696.645 96.7603 692.441C96.7603 687.321 95.3203 682.761 92.4403 678.761C89.5603 674.841 85.5603 671.801 80.4403 669.641C75.3203 667.481 69.5203 666.401 63.0403 666.401C52.4803 666.401 44.1603 668.441 38.0803 672.521C32.0003 676.681 28.9603 682.721 28.9603 690.641C28.9603 696.408 30.7797 701.276 34.4185 705.247C35.5752 706.509 36.9158 707.68 38.4403 708.761L31.0003 709.721V726.521H120.04L122.08 707.561H90.7603ZM81.6403 702.881C80.7603 704.481 79.4003 706.041 77.5603 707.561H50.0803C45.2803 704.601 42.8803 700.921 42.8803 696.521C42.8803 693.161 44.3603 690.561 47.3203 688.721C50.2803 686.961 55.4803 686.081 62.9203 686.081C69.7203 686.081 74.7603 687.121 78.0403 689.201C81.3203 691.281 82.9603 694.081 82.9603 697.601C82.9603 699.601 82.5203 701.361 81.6403 702.881ZM51.2685 703.561H76.0458C77.0278 702.621 77.6994 701.746 78.1354 700.953L78.1566 700.915L78.1786 700.877C78.6594 700.046 78.9603 698.996 78.9603 697.601C78.9603 695.611 78.1636 694.016 75.8981 692.579C73.5788 691.108 69.4602 690.081 62.9203 690.081C55.585 690.081 51.3646 690.988 49.3983 692.139C47.5844 693.278 46.8803 694.617 46.8803 696.521C46.8803 698.929 47.9811 701.281 51.2685 703.561ZM98.7203 764.314H27.0003V737.354H98.7203V764.314ZM106.839 761.529L106.837 761.526C104.021 758.598 102.72 754.875 102.72 750.714C102.72 746.553 104.021 742.83 106.837 739.902L106.864 739.873L106.892 739.846C109.771 736.966 113.411 735.554 117.52 735.554C121.617 735.554 125.241 736.96 128.057 739.874C130.957 742.79 132.32 746.52 132.32 750.714C132.32 754.895 130.965 758.617 128.082 761.529C125.283 764.521 121.653 765.994 117.52 765.994C113.363 765.994 109.707 764.506 106.839 761.529ZM125.2 758.754C127.28 756.674 128.32 753.994 128.32 750.714C128.32 747.434 127.28 744.754 125.2 742.674C123.2 740.594 120.64 739.554 117.52 739.554C114.4 739.554 111.8 740.594 109.72 742.674C107.72 744.754 106.72 747.434 106.72 750.714C106.72 753.994 107.72 756.674 109.72 758.754C111.8 760.914 114.4 761.994 117.52 761.994C120.64 761.994 123.2 760.914 125.2 758.754ZM30.8481 776.317L30.8853 776.281C35.0435 772.331 40.6755 770.621 47.2003 770.621H123.633L126.534 797.581H48.0196C48.0698 797.885 48.1498 798.156 48.2526 798.403L49.9961 802.587L34.6082 806.846H98.7203V833.806H27.0003L27.0003 806.846H28.1172L27.4305 805.206C25.7596 801.214 24.9603 796.839 24.9603 792.141C24.9603 785.842 26.7639 780.401 30.8119 776.353L30.8481 776.317ZM31.1203 803.661C29.6803 800.221 28.9603 796.381 28.9603 792.141C28.9603 786.621 30.5203 782.301 33.6403 779.181C36.8403 776.141 41.3603 774.621 47.2003 774.621H120.04L122.08 793.581H47.9203C45.2803 793.581 43.9603 794.661 43.9603 796.821C43.9603 797.264 43.9916 797.695 44.0542 798.113C44.1498 798.751 44.3185 799.361 44.5603 799.941L31.1203 803.661ZM106.839 831.021L106.837 831.019C104.021 828.09 102.72 824.367 102.72 820.206C102.72 816.045 104.021 812.322 106.837 809.394L106.864 809.365L106.892 809.338C109.771 806.459 113.411 805.046 117.52 805.046C121.617 805.046 125.241 806.453 128.057 809.366C130.957 812.282 132.32 816.013 132.32 820.206C132.32 824.388 130.965 828.109 128.082 831.021C125.283 834.014 121.653 835.486 117.52 835.486C113.363 835.486 109.707 833.999 106.839 831.021ZM125.2 828.246C127.28 826.166 128.32 823.486 128.32 820.206C128.32 816.926 127.28 814.246 125.2 812.166C123.2 810.086 120.64 809.046 117.52 809.046C114.4 809.046 111.8 810.086 109.72 812.166C107.72 814.246 106.72 816.926 106.72 820.206C106.72 823.486 107.72 826.166 109.72 828.246C111.8 830.406 114.4 831.486 117.52 831.486C120.64 831.486 123.2 830.406 125.2 828.246ZM94.7203 760.314V741.354H31.0003V760.314H94.7203ZM94.7203 829.806V810.846H31.0003V829.806H94.7203Z" fill="#FCFFFA"/>
</svg>
