<svg width="108" height="213" viewBox="0 0 108 213" fill="none" xmlns="http://www.w3.org/2000/svg">
<path d="M58.1002 91.3297L19.1303 85.469L0 95.2812L10.4968 115.746L29.6272 105.934L79.4872 203.143L107.96 188.538L58.1002 91.3297Z" fill="#FCFFFA"/>
<path d="M42.2341 36.3958C44.4758 32.9313 48.7107 30.6242 54.9388 29.4745C62.1503 28.1433 69.5824 28.4662 77.2351 30.4432L82.4285 7.62128C70.5095 4.56752 58.8136 4.09955 47.3407 6.21738C32.7538 8.91005 22.1559 14.8492 15.5469 24.0349C9.0715 33.0264 6.96837 43.6683 9.23747 55.9607L11.8696 70.2197L43.338 64.4108L40.7966 50.6434C39.6469 44.4153 40.1261 39.6661 42.2341 36.3958Z" fill="#FCFFFA"/>
<path d="M98.3266 56.5558L36.75 73.0601L73.6135 86.9915L100.9 79.6778L98.3266 56.5558Z" fill="#FCFFFA"/>
</svg>
