<svg width="205" height="223" viewBox="0 0 205 223" fill="none" xmlns="http://www.w3.org/2000/svg">
<path d="M59.8173 117.782C60.6727 113.874 63.1587 111.092 67.2751 109.434L51.1885 98.7462C45.8255 100.643 41.2967 103.405 37.6022 107.032C34.0705 110.695 31.8057 114.806 30.8077 119.365C29.2394 126.528 31.0319 133.148 36.185 139.224C41.3382 145.3 50.0202 149.675 62.231 152.348L81.7684 156.625C88.932 158.193 94.1011 160.69 97.2754 164.114C100.414 167.702 101.449 171.938 100.38 176.822C99.1678 182.358 95.7989 186.056 90.273 187.918C84.7471 189.779 76.0416 189.409 64.1564 186.807C55.6902 184.953 49.3203 182.876 45.0468 180.576C40.936 178.311 38.2703 175.68 37.0497 172.683C35.9918 169.722 35.9619 165.962 36.9599 161.403L8.87504 155.255C6.87905 164.372 7.03042 172.253 9.32913 178.899C11.6278 185.544 16.6717 191.34 24.4606 196.287C32.4124 201.269 43.8776 205.4 58.8562 208.679C79.696 213.241 96.4534 213.071 109.128 208.168C121.768 203.428 129.513 194.546 132.365 181.521C133.897 174.52 133.316 167.824 130.62 161.433C127.96 154.88 123.387 149.272 116.901 144.61C110.577 139.984 102.694 136.637 93.2505 134.57L73.469 130.24C63.0491 127.958 58.4985 123.806 59.8173 117.782Z" fill="#FCFFFA"/>
<path fill-rule="evenodd" clip-rule="evenodd" d="M151.207 51.0657C154.84 55.7656 157.22 60.4958 158.349 65.2564C160.111 71.6859 159.492 78.6988 156.493 86.2949C153.311 94.3561 148.48 100.691 142.001 105.301C135.678 109.972 128.014 112.591 119.01 113.157C110.161 113.785 100.699 112.11 90.6223 108.132C85.0415 105.928 80.6084 103.541 76.7071 100.488C69.9311 95.1844 67.1458 92.6811 62.5352 87.3668C56.6242 80.5535 52.9876 73.6526 51.6254 66.6641C50.4794 59.5818 51.4671 52.0876 54.5884 44.1814C58.077 35.3451 63.3074 28.4508 70.2798 23.4986C77.2522 18.5463 85.2402 15.7869 94.244 15.2203C103.464 14.5599 113.035 16.1882 122.956 20.1052C122.956 20.1052 134.326 30.7923 142.396 40.4083C143.094 41.24 143.796 42.0692 144.498 42.8986C146.775 45.5882 149.054 48.2804 151.207 51.0657ZM96.7271 40.9282C102.316 38.1176 108.444 38.0282 115.11 40.6599C129.992 46.5354 134.373 57.2243 128.253 72.7265C125.193 80.4777 120.945 85.7891 115.511 88.6609C110.138 91.3776 103.886 91.3283 96.7551 88.513C89.9341 85.82 85.4426 81.5382 83.2807 75.6675C81.1189 69.7968 81.5068 63.1409 84.4445 55.6999C87.2599 48.5688 91.3541 43.6449 96.7271 40.9282Z" fill="#FCFFFA"/>
<path d="M162.227 34.5804C179.055 36.9909 191.889 37.314 200.728 35.5495L196.425 9.17281C185.77 13.0343 175.975 15.588 167.042 16.8338C158.297 17.9383 147.019 17.333 133.207 15.018L162.227 34.5804Z" fill="#FCFFFA"/>
</svg>
