<svg width="151" height="246" viewBox="0 0 151 246" fill="none" xmlns="http://www.w3.org/2000/svg">
<path fill-rule="evenodd" clip-rule="evenodd" d="M4.54377 245.836L0.753171 202.835L6.72641 202.306C13.6228 201.694 18.8987 200.718 22.711 199.48C25.9993 198.412 29.0961 196.399 31.9979 193.197L32.0832 193.103L32.1724 193.013C34.9372 190.21 37.6909 185.589 40.1772 178.647L82.7476 59.7908L131.232 77.1561L89.5041 193.659C84.6433 207.23 78.2644 218.116 70.1319 225.909C62.3601 233.559 53.4346 238.822 43.3941 241.548C33.8061 244.387 22.6612 245.77 10.0584 245.816L4.54377 245.836ZM41.7566 235.775C50.7726 233.339 58.8377 228.616 65.952 221.604C73.2232 214.648 79.191 204.659 83.8555 191.636L123.56 80.7816L86.3731 67.4625L45.8258 180.67C43.1845 188.045 40.0571 193.564 36.4438 197.226C32.9312 201.102 28.9712 203.756 24.5639 205.187C20.1566 206.618 14.3875 207.65 7.25657 208.282L10.0364 239.816C22.2678 239.771 32.8412 238.424 41.7566 235.775ZM133.734 55.8223L133.729 55.8241C126.634 59.0086 119.05 58.9845 111.373 56.2348C103.696 53.4851 97.8213 48.6888 94.3612 41.7237L94.335 41.671L94.3099 41.6178C90.9671 34.5443 90.7539 27.0576 93.446 19.541C96.1317 12.0428 101.025 6.43502 108.099 3.24307C115.234 -0.111631 122.87 -0.193338 130.593 2.57293C138.298 5.33259 144.136 10.2263 147.522 17.321C151.126 24.3113 151.46 31.8009 148.755 39.351C146.039 46.9357 140.984 52.5616 133.734 55.8223ZM110.609 8.69293C105.125 11.1544 101.286 15.4448 99.0947 21.5642C96.9029 27.6835 97.1163 33.5135 99.7346 39.0542C102.409 44.4381 106.963 48.282 113.396 50.5862C119.829 52.8903 125.788 52.8116 131.273 50.3502C136.97 47.788 140.915 43.4472 143.107 37.3279C145.299 31.2085 144.979 25.4289 142.147 19.9888C139.529 14.4481 135.003 10.5257 128.57 8.22155C122.137 5.91741 116.15 6.07454 110.609 8.69293Z" fill="#404147"/>
</svg>
