<svg width="130" height="156" viewBox="0 0 130 156" fill="none" xmlns="http://www.w3.org/2000/svg">
<path fill-rule="evenodd" clip-rule="evenodd" d="M120.131 155.068L76.311 151.089L85.0618 54.7353C85.7369 47.3017 84.6462 43.6069 83.4821 42.0411L83.4284 41.9689L83.3768 41.895C82.2973 40.3482 80.3285 38.9926 76.2332 38.6207C72.1359 38.2486 68.322 39.1805 64.6027 41.5669L64.5892 41.5756L64.5756 41.5842C61.0394 43.8265 57.2149 47.3502 53.1442 52.3782L44.4422 148.194L0.622507 144.215L13.6696 0.555919L52.4531 4.07824L52.992 14.1698C63.978 6.0801 76.4315 2.49053 90.1952 3.74055C103.232 4.92459 113.748 9.90443 120.814 19.2383C128.011 28.3498 130.572 40.1062 129.334 53.7355L120.131 155.068ZM47.6681 26.9894C49.5272 24.9903 51.4325 23.1626 53.3838 21.5062C64.0859 12.422 76.1755 8.49197 89.6526 9.71596C101.437 10.7863 110.242 15.184 116.068 22.9092C122.074 30.4835 124.504 40.578 123.358 53.1928L114.698 148.55L82.8291 145.656L91.0372 55.278C91.7457 47.4767 90.8324 41.8711 88.2971 38.4612C85.9277 35.0663 82.0873 33.1277 76.7759 32.6453C71.2984 32.1478 66.1606 33.4384 61.3625 36.517C56.7454 39.4448 52.0681 43.9569 47.3306 50.0534L39.0094 141.676L7.1406 138.782L19.1023 7.07401L46.7386 9.58394L47.6681 26.9894Z" fill="#404147"/>
</svg>
