<svg width="441" height="416" viewBox="0 0 441 416" fill="none" xmlns="http://www.w3.org/2000/svg">
<path d="M135.738 184.934C127.334 177.098 120.087 169.654 111.71 161.789C109.523 159.735 106.81 156.781 104.763 154.579C81.2698 129.317 59.6407 105.512 38.1203 80.1339C23.808 63.266 10.8436 45.167 2.79885 24.239C0.99596 19.5558 0.0708527 14.2154 0.132195 9.19756C0.212422 2.75717 4.69982 -0.546432 11.0025 0.776182C15.4893 1.72441 19.9705 3.39442 24.0356 5.55154C48.6856 18.6558 69.4225 37.1255 89.837 55.6903C126.552 89.0938 162.46 123.4 198.655 157.386C210.479 168.488 220.718 180.9 229.282 194.744C232.845 200.504 236.757 206.331 241.608 210.982C273.632 241.696 308.071 269.532 343.926 295.655C363.57 309.971 383.316 324.149 402.729 338.77C416.403 349.071 427.896 361.55 436.509 376.482C442.697 387.217 441.258 399.487 432.953 407.793C423.981 416.763 412.103 418.106 400.93 411.73C389.684 405.313 379.521 397.526 371.057 387.782C355.333 369.685 339.948 351.301 324.382 333.065C294.082 297.549 261.878 263.827 227.814 231.911C224.716 229.016 220.997 226.388 217.092 224.82C207.992 221.159 198.63 218.171 189.347 214.983C169.644 208.224 151.166 199.283 135.738 184.934Z" fill="#839973"/>
</svg>
