<svg width="201" height="201" viewBox="0 0 201 201" fill="none" xmlns="http://www.w3.org/2000/svg">
<path fill-rule="evenodd" clip-rule="evenodd" d="M98.2776 9.00555L133.126 27.6026L128.299 40.8955C130.771 39.8241 133.214 38.9561 135.628 38.2913C140.654 36.9074 145.554 36.4047 150.329 36.7834C157.623 37.2755 164.285 39.1301 170.313 42.3473C185.017 50.1942 193.103 61.5933 194.569 76.5447C196.115 91.349 191.63 108.603 181.115 128.306C174.681 140.363 167.002 150.15 158.078 157.668C149.155 165.185 139.639 169.742 129.531 171.337C119.569 173.011 109.957 171.376 100.694 166.433C91.7788 161.675 85.4541 155.296 81.7198 147.294C80.5883 144.87 79.6946 142.296 79.0387 139.574L50.5546 192.949L9.17652 175.968L98.2776 9.00555ZM78.3131 153.678L53.2944 200.559L0.758185 178.999L95.8091 0.887275L140.542 24.7592L138.073 31.5589C142.329 30.7339 146.565 30.4694 150.768 30.7994C158.836 31.3482 166.319 33.4149 173.138 37.0539C189.378 45.7206 198.847 58.7577 200.539 75.9407C202.25 92.3891 197.218 110.876 186.408 131.131C179.675 143.748 171.542 154.171 161.944 162.257C152.312 170.371 141.817 175.466 130.495 177.259C119.183 179.153 108.243 177.262 97.8688 171.726C89.3167 167.162 82.7379 161.136 78.3131 153.678ZM144.585 77.8889L144.584 77.7795C144.563 75.5298 144.07 73.9025 143.333 72.6738C142.6 71.4501 141.423 70.2857 139.512 69.266C135.231 66.9813 129.821 66.9294 122.377 71.1078L98.8921 115.116C99.3527 118.031 100.083 120.147 100.924 121.635C102.018 123.395 103.641 124.933 106.013 126.199C108.299 127.419 110.325 127.839 112.185 127.729C114.061 127.619 116.162 126.946 118.542 125.381C123.474 122.138 129.047 115.426 135.004 104.265C138.489 97.7335 140.983 92.2352 142.562 87.7294C144.17 83.1383 144.681 79.9834 144.59 77.9982L144.585 77.8889ZM92.6922 113.989L117.881 66.7899C127.127 61.1452 135.279 60.2061 142.337 63.9726C147.778 66.8759 150.527 71.46 150.584 77.7247C150.867 83.9208 147.438 93.7092 140.297 107.09C128.056 130.028 115.686 138.162 103.188 131.492C99.9529 129.766 97.478 127.5 95.763 124.696C94.1951 121.97 93.1715 118.401 92.6922 113.989Z" fill="#404147"/>
</svg>
