<svg width="176" height="236" viewBox="0 0 176 236" fill="none" xmlns="http://www.w3.org/2000/svg">
<path d="M112.163 217.764L83.9598 162.831L73.1125 141.703L45.9372 88.7714L33.8876 70.2277L24.909 56.5709L0 69.3593L85.2938 235.493L112.163 217.764Z" fill="#FCFFFA"/>
<path d="M131.183 20.8149C120.191 11.2649 106.672 8.74342 90.6265 13.2505C83.5664 15.2336 77.278 18.7311 71.7611 23.7431C66.2442 28.755 61.9001 35.1687 58.7288 42.9842L66.8443 63.5561C68.5661 57.3596 71.2452 52.106 74.8816 47.7953C78.473 43.3242 82.836 40.3676 87.9707 38.9253C95.9935 36.6718 102.98 38.4314 108.929 44.2043C114.879 49.9772 120.039 60.6458 124.411 76.2101C132.614 105.413 127.81 122.516 109.999 127.519C100.372 130.223 91.3502 127.997 82.9344 120.839L89.357 143.704C99.8335 150.802 111.811 152.458 125.289 148.672C135.719 145.743 143.893 140.331 149.812 132.436C155.892 124.496 159.437 114.931 160.449 103.74C161.576 92.3445 160.291 80.0677 156.595 66.9103C150.646 45.73 142.175 30.3648 131.183 20.8149Z" fill="#FCFFFA"/>
</svg>
