<svg width="146" height="176" viewBox="0 0 146 176" fill="none" xmlns="http://www.w3.org/2000/svg">
<path d="M90.964 68.2295C88.8508 64.543 87.7451 61.4507 87.6469 58.9526L84.184 105.775C86.6662 109.514 87.8617 112.769 87.7706 115.541C87.9113 118.271 86.8928 121.214 84.715 124.368C81.8745 128.483 77.8664 130.476 72.6906 130.345C67.652 130.31 62.1838 128.257 56.2859 124.185C45.9989 117.084 38.5852 106.701 34.0447 93.0352L10.6515 98.7588C12.6868 107.252 16.3924 115.379 21.7682 123.141C27.2811 130.997 34.4953 138.002 43.4107 144.157C56.4409 153.152 69.4281 157.661 82.3724 157.686C95.4114 157.574 105.671 152.1 113.151 141.264C119.589 131.937 121.727 122.679 119.565 113.491C117.539 104.397 111.717 94.2007 102.099 82.9033C97.0207 76.7647 93.309 71.8735 90.964 68.2295Z" fill="#FCFFFA"/>
<path d="M139.781 49.3448C130.859 34.7537 118.056 24.3092 101.372 18.0111C92.0163 14.4795 83.0856 12.8898 74.5798 13.2419C66.23 13.6529 58.9979 15.822 52.8837 19.7491C46.9254 23.735 42.6514 29.1584 40.0616 36.0192C36.5888 45.2189 36.6379 54.0556 40.2087 62.5294C43.8384 70.8472 51.3208 79.1052 62.656 87.3032C69.8813 92.7028 75.0414 96.9666 78.1362 100.094L70.2195 53.8166C69.5225 51.4157 69.7037 48.8119 70.7632 46.0052C72.1758 42.263 74.9314 39.9184 79.0299 38.9715C83.1873 37.8686 88.2286 38.4355 94.1538 40.6722C104.289 44.4981 113.393 51.7647 121.465 62.4721L139.781 49.3448Z" fill="#FCFFFA"/>
</svg>
