<?xml version="1.0" encoding="utf-8"?>
<!-- Generator: Adobe Illustrator 26.5.0, SVG Export Plug-In . SVG Version: 6.00 Build 0)  -->
<svg version="1.1" id="Слой_2" xmlns="http://www.w3.org/2000/svg" xmlns:xlink="http://www.w3.org/1999/xlink" x="0px" y="0px"
	 viewBox="0 0 771 265" style="enable-background:new 0 0 771 265;" xml:space="preserve">
<style type="text/css">
	.st0{fill:#FCFFFA;}
</style>
<path class="st0" d="M137.7,10.2l-1.1,2.7l0,0l0,0L137.7,10.2z M172.2,32l2.2,2l2-2.2l-2.2-2L172.2,32z M153.3,53l-1.8,2.3l2.2,1.7
	l1.9-2.1L153.3,53z M125.3,36.7l-1.1,2.7l0,0l0,0L125.3,36.7z M64,40.3l-1.7-2.4l0,0L64,40.3z M55.6,85.4l-2.6,1.5l0,0l0,0
	L55.6,85.4z M71.6,98.8l-1.4,2.6l0,0l0,0L71.6,98.8z M106.1,111.9l0.9-2.8l0,0L106.1,111.9z M145.3,127.5l-1.4,2.6l0,0L145.3,127.5z
	 M170.3,150.7l-2.5,1.6l0,0l0,0L170.3,150.7z M169.3,226.2l-2.5-1.6l0,0l0,0L169.3,226.2z M138.4,252.3l-1.2-2.7l0,0l0,0
	L138.4,252.3z M5.9,229.5l-2.2-2l-1.9,2.1l2,2L5.9,229.5z M24.8,208.4l1.9-2.3l-2.2-1.8l-1.9,2.1L24.8,208.4z M55.6,227.3l-1.1,2.7
	l0,0l0,0L55.6,227.3z M129,222.2l1.7,2.4l0,0l0,0L129,222.2z M139.5,168.5l-2.6,1.4l0,0l0,0L139.5,168.5z M123.1,153.6l-1.5,2.5l0,0
	l0,0L123.1,153.6z M90.1,140.5l-0.9,2.8l0,0L90.1,140.5z M25.9,34.5l-2.4-1.7l0,0l0,0L25.9,34.5z M53.8,11.3l-1.2-2.7l0,0l0,0
	L53.8,11.3z M94.8,5.9c16.4,0,30.3,2.4,41.7,7l2.2-5.5c-12.3-5-27-7.5-44-7.5V5.9z M136.6,12.9c11.5,4.5,22.7,11.5,33.6,21.2
	l3.9-4.4C162.8,19.7,151,12.2,138.7,7.5L136.6,12.9z M170,30l-18.9,21.1l4.4,3.9L174.3,34L170,30z M155.1,50.7
	c-9.6-7.7-19.2-13.3-28.8-16.8l-2,5.5c8.8,3.3,17.9,8.5,27.1,15.9L155.1,50.7z M126.4,34c-9.3-3.8-19.4-5.7-30.1-5.7v5.9
	c10.1,0,19.4,1.8,27.9,5.2L126.4,34z M96.3,28.3c-13.5,0-24.9,3.1-34,9.6l3.4,4.8c7.9-5.6,18-8.5,30.6-8.5V28.3z M62.3,37.9
	c-9.3,6.7-13.9,16.5-13.9,28.9h5.9c0-10.8,3.9-18.7,11.5-24.1L62.3,37.9z M48.3,66.8c0,7.7,1.5,14.4,4.7,20l5.1-2.9
	c-2.6-4.5-4-10.2-4-17.1H48.3z M53.1,86.9c3.3,5.5,9.1,10.3,17.1,14.5l2.8-5.2c-7.5-4-12.3-8.2-14.8-12.3L53.1,86.9z M70.2,101.4
	c8.2,4.2,19.9,8.6,35,13.3l1.7-5.6c-14.9-4.6-26.2-8.9-34-12.9L70.2,101.4z M105.2,114.7c15.6,4.8,28.5,9.9,38.7,15.4l2.8-5.2
	c-10.6-5.7-23.9-11-39.7-15.8L105.2,114.7z M143.9,130.1c10,5.3,17.9,12.7,24,22.2l5-3.2c-6.6-10.4-15.3-18.4-26.1-24.3L143.9,130.1
	z M167.9,152.3c6.1,9.1,9.3,20.8,9.3,35.4h5.9c0-15.4-3.4-28.4-10.3-38.7L167.9,152.3z M177.2,187.7c0,14-3.5,26.3-10.4,36.9
	l4.9,3.2c7.6-11.7,11.4-25.1,11.4-40.1H177.2z M166.8,224.6c-6.7,10.6-16.5,19-29.6,25l2.5,5.3c14-6.5,24.7-15.6,32.1-27.2
	L166.8,224.6z M137.1,249.7c-12.8,6.1-28.2,9.2-46.3,9.2v5.9c18.7,0,35-3.2,48.8-9.7L137.1,249.7z M90.8,258.8
	c-33.9,0-61.5-10.5-82.9-31.5l-4.1,4.2c22.6,22.1,51.7,33.1,87,33.1V258.8z M8.1,231.4L27,210.4l-4.4-3.9L3.7,227.5L8.1,231.4z
	 M22.9,210.7c10.3,8.4,20.9,14.8,31.6,19.3l2.3-5.4c-10.1-4.2-20.2-10.4-30.1-18.5L22.9,210.7z M54.5,230
	c10.8,4.3,22.8,6.4,35.9,6.4v-5.9c-12.5,0-23.8-2-33.8-6L54.5,230z M90.5,236.4c16,0,29.5-3.9,40.2-11.8l-3.5-4.7
	c-9.6,7.1-21.7,10.7-36.7,10.7V236.4z M130.7,224.6c11-8.4,16.4-20.4,16.4-35.7h-5.9c0,13.7-4.8,24-14.1,31.1L130.7,224.6z
	 M147.1,188.8c0-8.6-1.6-15.9-5.1-21.8l-5.1,3c2.8,4.7,4.3,11,4.3,18.8H147.1z M142,167c-3.5-6.2-9.4-11.5-17.5-16l-2.9,5.1
	c7.5,4.2,12.4,8.8,15.2,13.8L142,167z M124.6,151.1c-7.8-4.5-19.1-9-33.7-13.3l-1.7,5.6c14.4,4.3,25.2,8.6,32.4,12.8L124.6,151.1z
	 M91,137.7c-25.5-7.7-43.7-16.8-55.1-27.3l-4,4.3c12.3,11.3,31.6,20.8,57.4,28.6L91,137.7z M35.8,110.4C24.7,100.2,19,86.2,19,68.3
	h-5.9c0,19.3,6.2,34.9,18.7,46.5L35.8,110.4z M19,68.3c0-12,3.1-22.7,9.3-32.1l-4.9-3.2c-6.9,10.4-10.3,22.3-10.3,35.4H19z
	 M28.3,36.2c6.5-9.4,15.3-16.9,26.8-22.2l-2.5-5.3c-12.3,5.8-22,13.8-29.1,24.2L28.3,36.2z M55,14c11.7-5.4,24.9-8.1,39.8-8.1V0
	C79.2,0,65.1,2.9,52.6,8.6L55,14z M362,230.2l-2.4,1.7l0,0l0,0L362,230.2z M374,238.6l2.8,0.9l0.9-2.7l-2.7-1L374,238.6z
	 M366.3,261.8l-0.4,2.9l2.4,0.3l0.8-2.3L366.3,261.8z M342.4,253.4l-1.7,2.4l0,0L342.4,253.4z M329,233.1l2.8-0.9l-1.8-5.8l-3.4,5.1
	L329,233.1z M227.3,245.8l-2.1,2.1l0,0L227.3,245.8z M232.8,157.2l-1.7-2.4l0,0l0,0L232.8,157.2z M324.6,140.9v2.9h2.9v-2.9H324.6z
	 M314.8,97.7l2-2.2l0,0L314.8,97.7z M233.1,99.1l-2.8,1l0.9,2.8l2.8-0.9L233.1,99.1z M224.8,74.8l-1-2.8l-2.7,1l0.9,2.7L224.8,74.8z
	 M341.3,78.5l-2.1,2.1l0,0l0,0L341.3,78.5z M324.6,207l2.6,1.4l0.4-0.7V207H324.6z M324.6,163h2.9v-2.9h-2.9V163z M254.9,228l-2.1,2
	l0,0L254.9,228z M355.1,212.8c0,8,1.4,14.5,4.5,19.1l4.9-3.3c-2.2-3.2-3.5-8.3-3.5-15.8H355.1z M359.6,231.9
	c3.1,4.2,7.6,7.3,13.3,9.4l2-5.5c-4.9-1.8-8.4-4.3-10.6-7.3L359.6,231.9z M371.2,237.6l-7.6,23.2l5.6,1.8l7.6-23.2L371.2,237.6z
	 M366.7,258.9c-9.6-1.2-17.1-3.8-22.6-7.8l-3.4,4.8c6.6,4.7,15.1,7.6,25.3,8.9L366.7,258.9z M344.1,251c-5.4-3.9-9.6-10.1-12.3-18.8
	l-5.6,1.8c3,9.6,7.8,17,14.5,21.8L344.1,251z M326.5,231.5c-12.2,18.2-30.3,27.4-54.6,27.4v5.9c26,0,46-10,59.4-30L326.5,231.5z
	 M272,258.8c-18.3,0-32.4-5.1-42.6-15.1l-4.1,4.2c11.6,11.3,27.3,16.8,46.7,16.8V258.8z M229.4,243.7c-10.2-10-15.5-23.1-15.5-39.6
	H208c0,17.9,5.7,32.6,17.2,43.9L229.4,243.7z M213.9,204.1c0-19.5,6.9-34.2,20.6-44.5l-3.5-4.7c-15.4,11.5-23,28.1-23,49.2H213.9z
	 M234.5,159.6c14.1-10.4,34.2-15.8,60.7-15.8V138c-27.2,0-48.7,5.5-64.2,16.9L234.5,159.6z M295.2,143.8h29.4V138h-29.4V143.8z
	 M327.5,140.9v-14.2h-5.9v14.2H327.5z M327.5,126.7c0-13.9-3.3-24.6-10.8-31.2l-3.9,4.4c5.6,5,8.8,13.7,8.8,26.8H327.5z M316.8,95.5
	c-7.3-6.5-18.2-9.5-32.1-9.5v5.9c13.2,0,22.4,2.8,28.2,8L316.8,95.5z M284.7,86c-14.5,0-32,3.5-52.5,10.3l1.9,5.6
	c20.2-6.7,37-10,50.6-10V86z M235.9,98.2l-8.3-24.3l-5.6,1.9l8.3,24.3L235.9,98.2z M225.8,77.6c23.5-8.6,45.1-12.9,65.1-12.9v-5.9
	c-20.7,0-43.1,4.4-67.1,13.2L225.8,77.6z M290.8,64.7c22.1,0,38,5.5,48.4,15.8l4.2-4.2c-11.9-11.9-29.6-17.6-52.5-17.6V64.7z
	 M339.2,80.6c10.4,10.2,15.8,24.9,15.8,44.7h5.9c0-20.9-5.7-37.3-17.6-48.9L339.2,80.6z M355.1,125.3v87.5h5.9v-87.5H355.1z
	 M279.6,239.7c20.4,0,36.3-10.7,47.6-31.3l-5.2-2.8c-10.5,19.1-24.6,28.2-42.4,28.2V239.7z M327.5,207V163h-5.9V207H327.5z
	 M324.6,160.1h-25v5.9h25V160.1z M299.6,160.1c-17.9,0-31.9,3.3-41.5,10.4c-9.7,7.2-14.4,18-14.4,31.8h5.9c0-12.3,4.1-21.2,12.1-27
	c8.1-6,20.6-9.2,38-9.2V160.1z M243.6,202.2c0,11.8,2.9,21.3,9.2,27.8l4.3-4.1c-4.9-5.1-7.5-12.8-7.5-23.7H243.6z M252.8,230.1
	c6.3,6.6,15.4,9.6,26.8,9.6v-5.9c-10.4,0-17.7-2.8-22.6-7.8L252.8,230.1z M557.3,77.4l-2.2,2l0,0l0,0L557.3,77.4z M572.2,257.4v2.9
	h2.9v-2.9H572.2z M538.8,257.4h-2.9v2.9h2.9V257.4z M531.1,96.2l2.2-2l0,0L531.1,96.2z M460,121.7l-2.5-1.6l-0.4,0.7v0.8H460z
	 M460,257.4v2.9h2.9v-2.9H460z M426.6,257.4h-2.9v2.9h2.9V257.4z M426.6,66.1v-2.9h-2.9v2.9H426.6z M455.3,66.1l2.9-0.3l-0.3-2.6
	h-2.7V66.1z M458.2,94.4l-2.9,0.3l0.8,8.1l4.5-6.8L458.2,94.4z M483.2,70.5l-1.5-2.6l0,0l0,0L483.2,70.5z M516.6,64.7
	c16.8,0,29.5,5,38.5,14.7l4.3-4c-10.4-11.1-24.8-16.5-42.8-16.5V64.7z M555.2,79.4c9.3,9.7,14.1,23.2,14.1,40.8h5.9
	c0-18.7-5.1-33.8-15.7-44.9L555.2,79.4z M569.2,120.2v137.2h5.9V120.2H569.2z M572.2,254.5h-33.4v5.9h33.4V254.5z M541.7,257.4
	V124.9h-5.9v132.5H541.7z M541.7,124.9c0-13.8-2.5-24.3-8.4-30.7l-4.3,4c4.3,4.7,6.9,13.3,6.9,26.7H541.7z M533.3,94.3
	c-5.8-6.4-14.2-9.3-24.7-9.3v5.9c9.4,0,16,2.6,20.3,7.4L533.3,94.3z M508.6,84.9c-10.8,0-20.3,3.1-28.6,9.3l3.5,4.7
	c7.2-5.4,15.5-8.1,25.1-8.1V84.9z M480,94.3c-8.1,6.1-15.6,14.7-22.5,25.8l5,3.1c6.6-10.7,13.7-18.7,21-24.2L480,94.3z M457,121.7
	v135.8h5.9V121.7H457z M460,254.5h-33.4v5.9H460V254.5z M429.5,257.4V66.1h-5.9v191.3H429.5z M426.6,69.1h28.7v-5.9h-28.7V69.1z
	 M452.3,66.4l2.9,28.3l5.9-0.6l-2.9-28.3L452.3,66.4z M460.6,96.1c6.5-9.8,14.6-17.5,24.1-23.1l-3-5.1c-10.3,6-19,14.4-26,24.9
	L460.6,96.1z M484.7,73c9.7-5.5,20.3-8.3,31.9-8.3v-5.9c-12.6,0-24.2,3-34.9,9.1L484.7,73z M726.4,67.2l1-2.8l0,0L726.4,67.2z
	 M756.2,83.5l2.4,1.6l1.5-2.3l-2.2-1.7L756.2,83.5z M742,104.6l-1.6,2.5l2.4,1.5l1.6-2.4L742,104.6z M717,92.2l-1,2.8l0,0l0,0
	L717,92.2z M666.5,95.2l1.7,2.4l0,0l0,0L666.5,95.2z M665.8,131.5l-1.8,2.4l0,0l0,0L665.8,131.5z M698.1,144.2l-0.8,2.8l0,0l0,0
	L698.1,144.2z M745.7,165.9l-1.9,2.2l0,0l0,0L745.7,165.9z M739.5,246.9l-1.6-2.4l0,0l0,0L739.5,246.9z M613.9,236.7l-2.2-1.9
	l-1.9,2.2l2.2,1.9L613.9,236.7z M631.7,216.4l1.8-2.3l-2.2-1.7l-1.8,2.1L631.7,216.4z M715.2,227.3l1.7,2.4l0,0l0,0L715.2,227.3z
	 M722.4,190.3l-2.5,1.6l0,0l0,0L722.4,190.3z M708.6,179.7l-1.3,2.7l0,0l0,0L708.6,179.7z M680,169.9l0.8-2.8l0,0l0,0L680,169.9z
	 M635.7,148.5l-2.1,2.1l0,0l0,0L635.7,148.5z M631,87.5l-2.4-1.7l0,0l0,0L631,87.5z M655.6,68.7l1.1,2.7l0,0l0,0L655.6,68.7z
	 M691.2,64.7c12.8,0,24.2,1.8,34.2,5.3l1.9-5.6c-10.8-3.8-22.8-5.6-36.2-5.6V64.7z M725.5,70c10.1,3.5,19.7,8.8,28.9,15.9l3.6-4.7
	c-9.7-7.4-19.9-13-30.6-16.8L725.5,70z M753.8,81.9L739.6,103l4.9,3.3l14.2-21.1L753.8,81.9z M743.6,102.1
	c-8.9-5.7-17.4-9.9-25.7-12.7l-1.9,5.6c7.7,2.6,15.8,6.6,24.4,12L743.6,102.1z M718,89.5c-8.1-2.8-16.6-4.2-25.6-4.2v5.9
	c8.4,0,16.3,1.3,23.7,3.8L718,89.5z M692.3,85.3c-11.3,0-20.6,2.4-27.5,7.5l3.5,4.8c5.6-4.1,13.5-6.3,24-6.3V85.3z M664.9,92.7
	c-7.1,4.9-10.7,11.9-10.7,20.6h5.9c0-6.8,2.7-11.9,8.2-15.7L664.9,92.7z M654.2,113.3c0,8.6,3.3,15.6,9.9,20.5l3.5-4.7
	c-5-3.8-7.5-8.9-7.5-15.8H654.2z M664.1,133.8c6.5,4.7,17.7,9,33.3,13.2l1.5-5.7c-15.4-4.1-25.8-8.2-31.3-12.3L664.1,133.8z
	 M697.4,147c21.1,5.3,36.4,12.4,46.3,21.1l3.9-4.4c-10.9-9.6-27.3-17.1-48.8-22.4L697.4,147z M743.8,168.2c9.9,8.6,15,20.3,15,35.5
	h5.9c0-16.7-5.6-30.1-17-40L743.8,168.2z M758.7,203.7c0,18-7,31.4-20.8,40.8l3.3,4.9c15.6-10.5,23.4-25.9,23.4-45.6H758.7z
	 M737.8,244.5c-13.9,9.5-31.1,14.4-51.7,14.4v5.9c21.5,0,39.9-5.1,55-15.4L737.8,244.5z M686.1,258.8c-28.4,0-51.8-8.2-70.3-24.3
	L612,239c19.7,17.2,44.5,25.8,74.2,25.8V258.8z M616.1,238.7l17.8-20.3l-4.4-3.9l-17.8,20.3L616.1,238.7z M629.9,218.7
	c16.7,12.7,35.2,19.1,55.5,19.1V232c-18.9,0-36.2-5.9-51.9-17.9L629.9,218.7z M685.4,237.9c12.9,0,23.5-2.6,31.5-8.2l-3.4-4.8
	c-6.6,4.6-15.9,7.1-28.1,7.1V237.9z M716.9,229.7c8.3-5.9,12.5-13.9,12.5-23.8h-5.9c0,8-3.3,14.2-10,19L716.9,229.7z M729.4,205.9
	c0-6.9-1.4-12.8-4.5-17.3l-4.9,3.3c2.2,3.2,3.5,7.8,3.5,13.9H729.4z M724.9,188.7c-3.1-4.8-8.2-8.6-15.1-11.6l-2.4,5.4
	c6.2,2.8,10.3,6,12.5,9.4L724.9,188.7z M709.9,177.1c-6.8-3.3-16.5-6.6-29.2-10l-1.5,5.7c12.5,3.4,21.9,6.6,28.2,9.6L709.9,177.1z
	 M680.7,167.1c-20.1-5.3-34.3-12.2-43-20.7l-4.1,4.2c9.7,9.5,25.1,16.8,45.6,22.2L680.7,167.1z M637.8,146.4
	c-8.4-8.4-12.6-19-12.6-32h-5.9c0,14.5,4.7,26.6,14.3,36.2L637.8,146.4z M625.2,114.4c0-9.3,2.7-17.7,8.1-25.1l-4.8-3.5
	c-6.2,8.5-9.3,18.1-9.3,28.6H625.2z M633.3,89.3c5.7-7.8,13.5-13.7,23.5-17.9l-2.3-5.4c-10.8,4.5-19.5,11.1-25.9,19.8L633.3,89.3z
	 M656.8,71.4c10.2-4.4,21.7-6.7,34.4-6.7v-5.9c-13.4,0-25.7,2.4-36.7,7.1L656.8,71.4z"/>
</svg>
