<svg width="469" height="89" viewBox="0 0 469 89" fill="none" xmlns="http://www.w3.org/2000/svg">
<path fill-rule="evenodd" clip-rule="evenodd" d="M40.3204 52.9169C38.651 57.2573 36.7237 60.8531 34.4789 63.5837C32.2629 66.2909 29.5585 68.3472 26.3887 69.7146L26.3754 69.7203L26.3621 69.7259C23.3351 70.9972 19.636 71.8186 15.3504 72.2639L12.6342 72.5461L9.88058 58.778L12.9975 58.3128C16.3827 57.8075 18.6489 57.0642 20.0299 56.2435C20.1338 56.1776 20.2373 56.1078 20.3403 56.034L0.757812 9.63992L19.4562 9.63992L29.5751 37.2549L38.4537 9.63992L56.9246 9.63992L51.9522 22.5999H69.0073V38.7856L78.2673 22.5999L110.609 22.5999L110.804 24.3288C111.439 23.9153 112.1 23.5441 112.787 23.2168C115.354 21.9672 118.037 21.3199 120.809 21.3199C126.99 21.3199 131.957 23.6758 135.153 28.5877C138.218 33.1668 139.569 39.3275 139.569 46.7199C139.569 48.2361 139.492 49.7113 139.336 51.1439C140.242 47.9095 142.1 45.1815 144.954 43.097C149.031 40.1207 154.582 38.8399 161.204 38.8399H163.051C162.931 37.249 162.513 36.7202 162.363 36.5904C162.017 36.2918 160.975 35.7999 158.484 35.7999C155.951 35.7999 152.562 36.4426 148.232 37.886L145.395 38.8317L140.97 25.6942L143.624 24.6487C149.22 22.4441 154.819 21.3199 160.404 21.3199C166.506 21.3199 171.633 22.6339 175.145 25.8633C178.681 29.0602 180.204 33.6726 180.204 39.1199V56.2399C180.204 57.5582 180.391 58.1494 180.472 58.3295C180.535 58.3995 180.735 58.5747 181.272 58.7539L184.082 59.6905L180.054 72.3121L177.669 72.1091C174.858 71.8698 172.324 71.195 170.22 69.9324L170.201 69.9208L170.181 69.9088C169.289 69.3549 168.5 68.6859 167.807 67.9186C164.583 70.8501 160.386 72.2799 155.444 72.2799C150.632 72.2799 146.469 70.8915 143.289 67.8468L143.265 67.8243L143.242 67.8012C140.155 64.7144 138.684 60.7427 138.684 56.1599C138.684 55.7423 138.695 55.3303 138.719 54.9242C138.375 56.4789 137.924 57.9755 137.363 59.4115C135.858 63.2631 133.607 66.4272 130.56 68.776L130.553 68.7816C127.471 71.1423 123.826 72.2799 119.769 72.2799C117.04 72.2799 114.532 71.7556 112.289 70.6993V87.0009L94.9285 88.9569V70.9999H78.2822L69.0073 53.5057L69.0073 70.9999L51.6473 70.9999L51.6473 23.3948L40.3204 52.9169ZM70.2473 49.4399L80.0873 67.9999H92.3273L79.5273 45.2799L91.2073 25.5999H80.0073L70.4873 42.2399H66.0073V25.5999H54.6473L54.6473 67.9999L66.0073 67.9999L66.0073 49.4399H70.2473ZM82.9926 45.319L94.9285 66.5052L94.9285 25.2079L82.9926 45.319ZM109.289 64.7199C110.193 65.7514 111.193 66.6079 112.289 67.2894C114.421 68.6164 116.914 69.2799 119.769 69.2799C123.235 69.2799 126.222 68.3199 128.729 66.3999C131.289 64.4266 133.235 61.7333 134.569 58.3199C135.902 54.9066 136.569 51.0399 136.569 46.7199C136.569 39.6266 135.262 34.1333 132.648 30.2399C130.089 26.2933 126.142 24.3199 120.809 24.3199C118.515 24.3199 116.275 24.8533 114.089 25.9199C113.061 26.4081 112.095 27.0201 111.191 27.7558C110.219 28.5472 109.318 29.482 108.489 30.5599L107.929 25.5999L97.9285 25.5999L97.9285 85.5999L109.289 84.3199V64.7199ZM166.067 65.4377C166.84 64.6933 167.539 63.8407 168.164 62.8799C168.624 63.9729 169.185 64.9108 169.847 65.6936C170.412 66.3622 171.051 66.9177 171.764 67.3599C173.364 68.3199 175.417 68.9066 177.924 69.1199L180.324 61.5999C180.323 61.5999 180.324 61.5999 180.324 61.5999C179.204 61.2266 178.403 60.6665 177.924 59.9199C177.444 59.1199 177.204 57.8933 177.204 56.2399V39.1199C177.204 34.2133 175.844 30.5333 173.124 28.0799C170.404 25.5733 166.164 24.3199 160.404 24.3199C155.23 24.3199 150.004 25.3599 144.724 27.4399L147.284 35.0399C151.764 33.5466 155.497 32.7999 158.484 32.7999C161.204 32.7999 163.15 33.3066 164.324 34.3199C165.354 35.2097 165.932 36.7164 166.057 38.8399C166.075 39.1347 166.084 39.4414 166.084 39.7599V41.8399H161.204C154.91 41.8399 150.084 43.0666 146.724 45.5199C143.364 47.9733 141.684 51.5199 141.684 56.1599C141.684 60.0533 142.91 63.2266 145.364 65.6799C147.87 68.0799 151.23 69.2799 155.444 69.2799C159.865 69.2799 163.406 67.9992 166.067 65.4377ZM29.7604 46.4799L17.3604 12.6399L5.28038 12.6399L22.4004 53.1999H26.2404C25.6957 54.3366 25.088 55.3366 24.4171 56.1999C23.5771 57.2809 22.6382 58.1476 21.6004 58.7999C20.2863 59.5883 18.5494 60.2314 16.3896 60.7291C15.4813 60.9384 14.4983 61.122 13.4404 61.2799L15.0404 69.2799C19.147 68.8533 22.5337 68.0799 25.2004 66.9599C27.9204 65.7866 30.2404 64.0266 32.1604 61.6799C34.1337 59.2799 35.9204 55.9999 37.5204 51.8399L52.5604 12.6399H40.6404L29.7604 46.4799ZM114.57 36.6683L114.561 36.6745C113.769 37.2449 113.006 38.0211 112.289 39.0504V55.6809C113.504 57.2212 114.845 57.7999 116.409 57.7999C118.152 57.7999 119.238 57.1668 120.07 55.7673C121.047 54.122 121.729 51.2675 121.729 46.7999C121.729 41.7511 121.094 38.8176 120.288 37.4153C119.609 36.2341 118.746 35.7199 117.289 35.7199C116.373 35.7199 115.491 35.995 114.579 36.6621L114.57 36.6683ZM109.289 56.6399V38.1599C110.302 36.5066 111.475 35.1999 112.809 34.2399C114.195 33.2266 115.689 32.7199 117.289 32.7199C119.795 32.7199 121.662 33.7866 122.889 35.9199C124.115 38.0533 124.729 41.6799 124.729 46.7999C124.729 56.1333 121.955 60.7999 116.409 60.7999C113.475 60.7999 111.102 59.4133 109.289 56.6399ZM163.084 55.5445V51.3199H162.324C159.544 51.3199 158.006 51.8549 157.22 52.4424C156.598 52.9075 156.124 53.6418 156.124 55.1999C156.124 56.516 156.422 57.2105 156.717 57.5922C156.984 57.846 157.479 58.1199 158.564 58.1199C160.338 58.1199 161.81 57.4258 163.084 55.5445ZM154.484 59.5999C153.577 58.5333 153.124 57.0666 153.124 55.1999C153.124 50.6133 156.19 48.3199 162.324 48.3199H166.084V56.3999C164.27 59.5466 161.764 61.1199 158.564 61.1199C156.804 61.1199 155.444 60.6133 154.484 59.5999ZM202.914 22.5999V70.9999H185.554V22.5999L202.914 22.5999ZM178.777 16.9459L178.752 16.9212C177.019 15.1876 176.114 13.0122 176.114 10.5599C176.114 8.11633 177.014 5.94896 178.777 4.25424C180.506 2.53648 182.673 1.63992 185.114 1.63992C187.569 1.63992 189.764 2.51173 191.475 4.27805C193.221 5.96925 194.114 8.12772 194.114 10.5599C194.114 13.0122 193.208 15.1876 191.475 16.9212C189.746 18.6503 187.548 19.4799 185.114 19.4799C182.705 19.4799 180.545 18.634 178.802 16.97L178.777 16.9459ZM189.354 6.39992C188.234 5.22659 186.82 4.63992 185.114 4.63992C183.46 4.63992 182.047 5.22659 180.874 6.39992C179.7 7.51992 179.114 8.90659 179.114 10.5599C179.114 12.2133 179.7 13.6266 180.874 14.7999C182.047 15.9199 183.46 16.4799 185.114 16.4799C186.82 16.4799 188.234 15.9199 189.354 14.7999C190.527 13.6266 191.114 12.2133 191.114 10.5599C191.114 8.90659 190.527 7.51992 189.354 6.39992ZM209.61 16.9459L209.585 16.97C207.822 18.6526 205.627 19.4799 203.194 19.4799C200.785 19.4799 198.625 18.634 196.882 16.97L196.832 16.9218L196.783 16.8713C195.119 15.1281 194.274 12.9682 194.274 10.5599C194.274 8.1498 195.123 5.98811 196.832 4.2786C198.566 2.54496 200.741 1.63992 203.194 1.63992C205.659 1.63992 207.861 2.51672 209.61 4.25412C211.373 5.94886 212.274 8.11627 212.274 10.5599C212.274 13.0122 211.368 15.1876 209.635 16.9212L209.61 16.9459ZM207.514 6.39992C206.34 5.22659 204.9 4.63992 203.194 4.63992C201.54 4.63992 200.127 5.22659 198.954 6.39992C197.834 7.51992 197.274 8.90659 197.274 10.5599C197.274 12.2133 197.834 13.6266 198.954 14.7999C200.127 15.9199 201.54 16.4799 203.194 16.4799C204.9 16.4799 206.34 15.9199 207.514 14.7999C208.687 13.6266 209.274 12.2133 209.274 10.5599C209.274 8.90659 208.687 7.51992 207.514 6.39992ZM232.612 70.9999V53.7199H225.492V70.9999H208.132V22.5999L225.492 22.5999V39.1599H232.612V22.5999H249.972V70.9999H232.612ZM235.612 42.1599H222.492V25.5999H211.132V67.9999H222.492V50.7199H235.612V67.9999H246.972V25.5999H235.612V42.1599ZM284.963 57.2002L289.923 64.3199C285.87 67.6266 281.23 69.2799 276.003 69.2799C271.843 69.2799 268.216 68.3733 265.123 66.5599C262.083 64.7466 259.736 62.1866 258.083 58.8799C256.43 55.5199 255.603 51.5999 255.603 47.1199C255.603 42.6399 256.43 38.6933 258.083 35.2799C259.736 31.8133 262.083 29.1199 265.123 27.1999C268.216 25.2799 271.79 24.3199 275.843 24.3199C278.67 24.3199 281.203 24.7466 283.443 25.5999C285.736 26.3999 287.896 27.6799 289.923 29.4399L284.963 36.1599C284.744 35.9916 284.526 35.8306 284.308 35.6769C283.148 34.8565 282.006 34.2442 280.883 33.8399C279.603 33.3599 278.19 33.1199 276.643 33.1199C270.616 33.1199 267.603 37.7599 267.603 47.0399C267.603 51.7333 268.376 55.0933 269.923 57.1199C271.47 59.1466 273.683 60.1599 276.563 60.1599C278.056 60.1599 279.416 59.9466 280.643 59.5199C281.87 59.0399 283.31 58.2669 284.963 57.2002ZM279.604 56.7046C280.57 56.3206 281.807 55.666 283.336 54.679L285.769 53.1094L293.366 64.0141V29.8268L285.559 40.4036L283.134 38.5378C281.938 37.618 280.848 37.016 279.867 36.6626L279.848 36.6559L279.829 36.6489C278.928 36.3107 277.877 36.1199 276.643 36.1199C274.538 36.1199 273.276 36.8525 272.379 38.2339C271.336 39.839 270.603 42.6288 270.603 47.0399C270.603 51.5579 271.377 54.0809 272.308 55.2999C273.208 56.4794 274.48 57.1599 276.563 57.1599C277.746 57.1599 278.75 56.9947 279.604 56.7046ZM293.366 28.4567V22.5999H310.726V35.8799H311.326C318.289 35.8799 324.026 37.1543 327.913 40.2915C331.915 43.4234 333.766 47.9751 333.766 53.4399C333.766 58.9715 331.788 63.5499 327.618 66.7106L327.612 66.7152C323.708 69.6597 318.779 70.9999 313.086 70.9999L293.366 70.9999V65.3827L291.819 66.6445C287.231 70.3876 281.921 72.2799 276.003 72.2799C271.396 72.2799 267.228 71.2717 263.606 69.148L263.596 69.1422L263.586 69.1364C260.031 67.016 257.297 64.017 255.4 60.2216L255.395 60.213L255.391 60.2044C253.499 56.3591 252.603 51.97 252.603 47.1199C252.603 42.2712 253.498 37.8657 255.38 33.9789C257.259 30.0421 259.972 26.9048 263.521 24.6635L263.531 24.6572L263.541 24.651C267.162 22.4035 271.296 21.3199 275.843 21.3199C278.955 21.3199 281.846 21.7875 284.471 22.7815C287.145 23.7202 289.618 25.2015 291.89 27.1748L293.366 28.4567ZM326.046 42.6399C322.953 40.1333 318.046 38.8799 311.326 38.8799H307.726V25.5999H296.366V67.9999L313.086 67.9999C318.313 67.9999 322.553 66.7733 325.806 64.3199C329.113 61.8133 330.766 58.1866 330.766 53.4399C330.766 48.6933 329.193 45.0933 326.046 42.6399ZM315.197 56.4267C315.615 56.0131 316.086 55.1555 316.086 53.2799C316.086 51.3833 315.612 50.5912 315.255 50.25C314.938 49.9476 313.901 49.3999 311.246 49.3999H310.726V57.3199H311.966C313.885 57.3199 314.772 56.8464 315.197 56.4267ZM307.726 60.3199V46.3999H311.246C314.126 46.3999 316.153 46.9599 317.326 48.0799C318.499 49.1999 319.086 50.9333 319.086 53.2799C319.086 57.9733 316.713 60.3199 311.966 60.3199H307.726ZM378.366 25.2078L366.43 45.319L378.366 66.5052V25.2078ZM361.705 22.5999L352.445 38.7856V22.5999L335.085 22.5999V70.9999H352.445V53.5057L361.72 70.9999H395.09L403.726 53.0853V70.9999L420.606 70.9999V22.5999H403.709L395.246 40.4401V22.5999L361.705 22.5999ZM390.806 56.7999C391.179 55.3066 391.499 53.1733 391.766 50.3999C391.888 49.3209 391.987 48.238 392.062 47.1513C392.185 45.391 392.246 43.6206 392.246 41.8399V25.5999H381.366V67.9999H393.206L408.246 36.7999C407.873 38.3999 407.526 40.5599 407.206 43.2799C407.083 44.3244 406.984 45.3924 406.908 46.484C406.787 48.2353 406.726 50.0472 406.726 51.9199V67.9999H417.606V25.5999H405.606L390.806 56.7999ZM353.685 49.4399L363.525 67.9999H375.765L362.965 45.2799L374.645 25.5999L363.445 25.5999L353.925 42.2399H349.445V25.5999L338.085 25.5999V67.9999H349.445V49.4399H353.685ZM468.028 70.9999H451.148V53.0853L442.512 70.9999H425.788V22.5999L442.668 22.5999V40.4401L451.131 22.5999L468.028 22.5999V70.9999ZM438.228 56.7999C438.601 55.3066 438.921 53.1733 439.188 50.3999C439.31 49.3209 439.409 48.238 439.484 47.1513C439.607 45.391 439.668 43.6206 439.668 41.8399V25.5999L428.788 25.5999V67.9999H440.628L455.668 36.7999C455.295 38.3999 454.948 40.5599 454.628 43.2799C454.505 44.3244 454.406 45.3924 454.33 46.484C454.209 48.2353 454.148 50.0472 454.148 51.9199V67.9999H465.028V25.5999L453.028 25.5999L438.228 56.7999ZM435.504 16.3124L435.49 16.2997C432.522 13.6021 430.9 10.0469 430.52 5.87153L430.273 3.14804L442.134 0.951416L442.876 3.58769C443.226 4.83386 443.68 5.36708 444.002 5.60355C444.468 5.90276 445.333 6.19992 446.868 6.19992C448.364 6.19992 449.213 5.8975 449.684 5.58377C450.069 5.32691 450.568 4.77244 450.964 3.5051L451.758 0.965611L463.543 3.14804L463.296 5.87153C462.914 10.0677 461.25 13.6293 458.221 16.3221L458.218 16.325C455.199 19.001 451.31 20.1999 446.868 20.1999C442.425 20.1999 438.537 19.001 435.518 16.325L435.504 16.3124ZM442.308 8.07992C441.241 7.33326 440.468 6.10659 439.988 4.39992L433.508 5.59992C433.601 6.62302 433.78 7.58755 434.044 8.4935C434.049 8.51192 434.055 8.53032 434.06 8.54869C434.708 10.7355 435.857 12.5793 437.508 14.0799C439.855 16.1599 442.975 17.1999 446.868 17.1999C450.761 17.1999 453.881 16.1599 456.228 14.0799C457.916 12.579 459.09 10.7348 459.749 8.54746C459.761 8.50887 459.772 8.47018 459.784 8.43137C460.042 7.54348 460.217 6.59967 460.308 5.59992L453.828 4.39992C453.295 6.10659 452.468 7.33326 451.348 8.07992C450.228 8.82659 448.735 9.19992 446.868 9.19992C444.948 9.19992 443.428 8.82659 442.308 8.07992ZM199.914 25.5999L188.554 25.5999V67.9999H199.914V25.5999Z" fill="#FCFFFA"/>
</svg>
