<svg width="422" height="418" viewBox="0 0 422 418" fill="none" xmlns="http://www.w3.org/2000/svg">
<path d="M373.745 1.91239C368.931 7.16913 364.222 12.5182 359.295 17.6614C341.653 36.0569 323.857 54.3105 306.285 72.7771C301.706 77.5892 297.599 82.8769 293.527 88.1436C291.886 90.2657 290.538 92.9112 289.263 95.3176L290.765 96.8305C293.365 95.4757 296.424 94.3843 298.644 92.5613C311.015 82.4401 312.006 81.7498 324.102 71.3093C340.114 57.4896 364.33 36.2492 380.257 22.3302C381.797 20.9855 386.316 17.1065 388.06 15.9959L389.468 17.4155C387.38 20.0097 377.245 31.5607 374.945 33.942C358.262 51.1887 348.35 61.7 331.851 79.117C323.501 87.9242 317.103 95.4458 309.324 104.771C307.655 106.766 306.923 109.521 305.748 111.928L307.226 113.417C310.294 111.838 313.693 110.82 316.38 108.744C324.543 102.432 333 94.8971 340.656 87.9894C356.358 73.815 371.394 60.3745 386.998 46.0866C392.327 41.2066 398.236 36.1873 403.909 31.9662C404.395 32.3853 404.839 32.9597 405.318 33.3858C403.903 35.3957 400.493 39.4416 398.832 41.2313C389.047 51.7717 365.625 76.7788 348.271 95.6634C340.39 104.232 333.016 113.269 325.543 122.207C324.129 123.891 323.087 126.347 322.018 128.323L323.427 129.742C326.111 128.898 328.59 127.847 330.717 126.441C339.581 119.757 337.956 120.959 346.795 113.596C362.553 99.733 404.177 61.9912 419.758 47.9365L421.167 49.3561C420.028 51.36 416.07 58.4162 410.856 64.5198C379.249 101.523 355.116 131.08 319.216 164.624C306.243 176.751 291.11 182.626 273.705 183.542C271.038 183.681 268.386 183.918 265.726 184.035C256.631 184.425 249.579 188.523 242.67 194.477C231.219 204.346 214.539 220.899 204.247 231.113C161.659 273.378 131.161 319.306 98.8258 356.868C81.4247 377.082 55.179 402.793 40.9665 411.966C30.9104 418.457 20.0262 421.686 8.40343 409.975C-3.21936 398.263 0.330869 385.401 5.82267 376.753C16.7788 359.499 40.2991 336.328 60.683 318.434C97.1321 286.437 144.715 255.425 187.708 214.448C197.112 205.483 216.434 187.319 225.143 177.298C231.708 168.638 235.698 160.961 236.818 150.946C237.719 142.839 238.266 134.659 239.711 126.66C241.914 114.414 250.086 105.628 258.413 97.153C288.348 66.6843 320.325 38.5143 354.04 12.3098C358.367 8.94622 362.995 5.94446 367.575 2.9213C369.134 1.89485 370.982 1.30084 372.696 0.515393C372.696 0.515393 373.971 1.80006 373.915 1.74332L373.745 1.91239Z" fill="#839973"/>
</svg>
