<svg width="604" height="1117" viewBox="0 0 604 1117" fill="none" xmlns="http://www.w3.org/2000/svg">
<rect x="88.2305" y="55.3068" width="72.3546" height="104.08" rx="8.37425" transform="rotate(-19 88.2305 55.3068)" fill="#839973"/>
<path d="M184.62 117.01L117.604 140.086C112.606 141.807 109.95 147.253 111.671 152.251L170.437 322.919C181.727 355.709 180.218 391.554 166.21 423.279L154.62 449.528C144.023 473.528 142.881 500.645 151.423 525.452L354.487 1115.19C438.187 1088.81 603.338 1029.5 603.338 1029.5L400.854 441.448C391.952 415.594 373.258 394.358 348.768 382.194L323.635 369.712C291.262 353.633 266.518 325.461 254.75 291.286L196.785 122.944C195.064 117.946 189.618 115.29 184.62 117.01Z" fill="#404147"/>
<rect x="195.133" y="652.39" width="263.191" height="247.638" transform="rotate(-19 195.133 652.39)" fill="#839973"/>
<line x1="246.565" y1="720.924" x2="445.646" y2="652.375" stroke="#FCFFFA" stroke-width="2"/>
<line x1="299.178" y1="800.233" x2="453.014" y2="747.263" stroke="#FCFFFA" stroke-width="2"/>
</svg>
