<svg width="224" height="203" viewBox="0 0 224 203" fill="none" xmlns="http://www.w3.org/2000/svg">
<path fill-rule="evenodd" clip-rule="evenodd" d="M115.31 27.1972C129.878 14.4644 145.473 7.66429 162.095 6.7968C178.717 5.92931 196.692 11.0994 216.021 22.307L202.689 53.7536C200.813 52.8435 198.998 52.0015 197.243 51.2275C188.135 47.2112 180.648 45.0276 174.781 44.6766C169.712 44.317 164.697 45.2262 159.735 47.4042C157.708 48.294 155.69 49.3955 153.68 50.7087L168.126 59.6711L130.035 193.145L85.4236 165.467L125.624 68.9008L53.5582 145.697L10.2214 118.81L115.31 27.1972ZM107.382 97.1084L77.9224 167.874L133.624 202.433L175.139 56.9611L166.254 51.4486C168.991 50.7187 171.687 50.4722 174.356 50.6615L174.39 50.6639L174.423 50.6659C180.228 51.0131 188.675 53.6225 200.07 59.1516L205.749 61.9075L223.612 19.773L219.03 17.1164C199.031 5.52019 179.901 -0.140669 161.782 0.804944C143.608 1.75347 126.774 9.21067 111.366 22.6759C111.364 22.6771 111.363 22.6783 111.362 22.6795L0.155118 119.626L54.5708 153.386L107.382 97.1084Z" fill="#404147"/>
</svg>
