<svg width="268" height="70" viewBox="0 0 268 70" fill="none" xmlns="http://www.w3.org/2000/svg">
<path fill-rule="evenodd" clip-rule="evenodd" d="M25.9627 55.9819L25.957 55.9988C24.6212 59.9667 22.3584 63.2093 18.9709 65.2692L18.9539 65.2796L18.9369 65.2897C15.5797 67.2859 10.8934 68 5.51562 68H0.978516L0.978516 51.6992H5.80859C7.57737 51.6992 8.53453 51.3636 9.01867 51.0635C9.41655 50.7992 9.83488 50.3397 10.1507 49.3608C10.5139 48.1996 10.793 46.0472 10.793 42.6133L10.793 16.3887H1.51562L1.51562 0.0878906L37.8887 0.0878906C47.2809 0.0878906 55.0123 2.0685 60.0234 6.99187C65.0634 11.9107 67.084 19.5816 67.084 28.8926V68H50.0996L50.0996 28.7949C50.0996 23.1498 48.9125 20.249 47.5904 18.9092L47.581 18.8997L47.5716 18.8901C46.3128 17.5973 43.4809 16.3887 37.791 16.3887H27.7773L27.7773 40.8066C27.7773 46.9572 27.2354 52.0867 25.9682 55.965L25.9627 55.9819ZM23.7773 12.3887L37.791 12.3887C43.8132 12.3887 48.0286 13.6257 50.4375 16.0996C52.8789 18.5736 54.0996 22.8053 54.0996 28.7949L54.0996 64H63.084L63.084 28.8926C63.084 20.0059 61.1309 13.6582 57.2246 9.84961C53.3184 6.00846 46.873 4.08789 37.8887 4.08789L5.51562 4.08789L5.51562 12.3887L14.793 12.3887L14.793 42.6133C14.793 46.1615 14.5163 48.8145 13.9629 50.5723C13.4095 52.2975 12.4818 53.5833 11.1797 54.4297C9.84505 55.276 8.05469 55.6992 5.80859 55.6992H4.97852L4.97852 64H5.51562C6.74841 64 7.9027 63.9594 8.97852 63.8781C12.4195 63.6182 15.0575 62.9427 16.8926 61.8516C19.3014 60.3867 21.0592 58.0104 22.166 54.7227C23.2402 51.4349 23.7773 46.7962 23.7773 40.8066L23.7773 12.3887ZM90.5703 0.0878906V39.582H73.5859V0.0878906L90.5703 0.0878906ZM146.527 68H129.494V28.7949C129.494 23.2264 128.328 20.3054 126.997 18.9201L126.987 18.9103L126.978 18.9005C125.754 17.6092 122.979 16.3887 117.332 16.3887H95.0215V0.0878906L117.43 0.0878906C123.737 0.0878906 129.2 0.970165 133.59 2.98703C138.131 5.04004 141.517 8.38333 143.614 12.8967C145.644 17.2335 146.527 22.6455 146.527 28.8926V68ZM139.988 14.5859C138.296 10.9401 135.61 8.28711 131.932 6.62695C128.253 4.93425 123.419 4.08789 117.43 4.08789L99.0215 4.08789V12.3887L117.332 12.3887C123.322 12.3887 127.505 13.6419 129.881 16.1484C132.29 18.6549 133.494 22.8704 133.494 28.7949V64H142.527V28.8926C142.527 22.9681 141.681 18.1992 139.988 14.5859ZM210.834 52.0898H212.4C218.899 52.0898 224.177 51.6455 228.317 50.8255L209.754 0.0878906L228.225 0.0878906L243.121 42.5958C243.889 41.5843 244.586 40.4666 245.212 39.2365L245.219 39.2242C246.834 36.0779 248.109 31.7336 248.919 26.035L248.92 26.0244L248.922 26.0138C249.762 20.3202 250.197 13.0287 250.197 4.08789V0.0878906L267.621 0.0878906V4.08789C267.621 19.3352 266.014 31.6662 262.582 40.8408L262.579 40.8494L262.576 40.8581C260.244 47.0061 256.926 52.2177 252.57 56.3904L252.563 56.3965L252.557 56.4026C248.171 60.5674 242.62 63.67 236.047 65.8028L236.035 65.8068C229.519 67.8975 221.683 69.1388 212.606 69.606L208.4 69.8225V68H150.539V51.6992L187.355 51.6992V28.7949C187.355 23.1498 186.168 20.249 184.846 18.9092L184.837 18.8997L184.827 18.8901C183.563 17.5909 180.754 16.3887 175.145 16.3887L152.834 16.3887V0.0878906L175.242 0.0878906C184.634 0.0878906 192.363 2.06821 197.346 7.00927C202.333 11.9547 204.34 19.6082 204.34 28.8926V51.6992H210.834V52.0898ZM191.355 55.6992L154.539 55.6992V64L206.834 64V55.6992H200.34V28.8926C200.34 20.0384 198.403 13.6908 194.529 9.84961C190.656 6.00846 184.227 4.08789 175.242 4.08789L156.834 4.08789V12.3887L175.145 12.3887C181.102 12.3887 185.285 13.6257 187.693 16.0996C190.135 18.5736 191.355 22.8053 191.355 28.7949V55.6992ZM244.653 46.9654C243.658 48.0145 242.575 48.9564 241.404 49.791L225.389 4.08789L215.477 4.08789L233.592 53.5996C232.403 53.9859 231.108 54.3272 229.707 54.6236C225.088 55.6011 219.319 56.0898 212.4 56.0898V65.6113C213.767 65.541 215.1 65.4529 216.4 65.3469C223.527 64.7661 229.665 63.6498 234.812 61.998C240.932 60.0124 245.929 57.1803 249.803 53.502C253.676 49.791 256.688 45.1035 258.836 39.4395C261.738 31.682 263.32 21.2315 263.582 8.08789C263.608 6.78118 263.621 5.44784 263.621 4.08789L254.197 4.08789C254.197 13.1374 253.758 20.6406 252.879 26.5977C252.033 32.5547 250.665 37.3724 248.777 41.0508C247.632 43.3014 246.257 45.273 244.653 46.9654ZM86.5703 4.08789L77.5859 4.08789V35.582H86.5703V4.08789Z" fill="#FCFFFA"/>
</svg>
